<svg width="160" height="160" version="1.1" xmlns="http://www.w3.org/2000/svg" desc="Created with imagetracer.js version 1.2.6" ><path fill="rgb(50,8,19)" stroke="rgb(50,8,19)" stroke-width="1" opacity="1" d="M 46.5 0 L 49 0.5 Q 44.5 4 46 13.5 L 47 14.5 L 48 37 Q 56.7 35.1 61 27.5 L 69 14.5 L 71 6 L 73 6.5 L 73 14.5 L 77 24.5 L 78 49.5 L 77 50.5 L 77 58.5 L 74 74.5 L 75 74.5 Q 86 58.5 92 37.5 L 94 28.5 L 95 13.5 L 96 12.5 L 96 4.5 L 95 0 L 100 0 L 100 7.5 L 101 10.5 L 100 15 Q 106.8 16.1 110 22.5 L 114.5 34 L 117 30.5 L 123 13.5 L 123 0 Q 126.7 -1.5 126 1.5 L 128 7.5 L 141.5 21 Q 149 28.3 160 31 L 159.5 36 Q 149.5 33.5 143.5 27 L 143 32.5 L 144 35.5 L 143 36.5 L 143 50.5 L 144 51.5 L 144 61.5 L 145 62.5 L 145 83.5 L 146 84.5 L 147 106.5 L 159 158.5 L 158 158.5 L 149 122.5 L 148 113.5 L 146.5 112 L 146 121.5 L 147 122.5 L 147 130.5 L 152 160 Q 146.8 162.1 148 157.5 L 144 134.5 L 142.5 133 L 116.5 137 L 87.5 151 L 81 152 Q 79.9 154.7 82.5 154 L 92 159.5 L 85.5 160 L 51.5 142 Q 39.1 136.4 23.5 134 L 22 135.5 L 22 160 L 17 160 L 17 149.5 Q 14.5 148 16 142.5 L 17 141.5 L 17 101.5 L 16 101.5 L 16 107.5 L 15 108.5 L 15 114.5 L 13 121.5 L 10 149.5 L 9 150.5 L 9 160 L 3 160 L 3 157.5 L 4 156.5 L 4 148.5 L 5 147.5 L 7 127.5 L 12 102.5 L 13 89.5 L 14 88.5 L 15 41 L 11 42 L 10 45.5 L 8 71.5 L 7 72.5 L 6 85.5 L 0.5 117 L 0 99.5 L 7 64.5 L 9 44 L 0 46 L 1.5 42 Q 20.4 35.9 31 21.5 L 46.5 0 Z M 127 12 L 127 19 L 124 27 L 136 33 L 138 35 L 137 22 L 133 17 L 127 12 Z M 42 14 L 30 29 L 30 30 L 38 26 L 43 26 L 43 15 L 42 14 Z M 73 18 L 61 34 Q 67 38 70 47 L 69 51 L 51 47 L 44 47 L 36 45 L 26 45 L 20 42 L 21 38 L 19 37 L 19 86 L 20 87 L 20 96 L 29 96 L 30 94 Q 27 89 22 88 L 22 87 L 30 90 Q 34 91 33 96 Q 29 101 20 99 L 21 126 L 29 132 Q 48 135 63 144 Q 70 147 83 145 L 84 146 L 87 145 L 89 146 L 112 134 L 128 130 L 136 130 L 143 124 L 142 122 L 142 107 L 141 106 L 141 99 L 129 97 L 127 94 Q 132 87 141 86 L 141 74 L 140 73 L 140 64 L 136 71 L 132 63 Q 131 60 127 61 L 128 66 Q 129 73 125 77 Q 122 81 116 82 L 113 82 L 115 79 L 114 74 L 110 71 L 106 72 L 103 76 L 100 71 L 96 79 L 94 80 Q 93 70 96 66 Q 101 58 112 56 L 137 55 L 139 59 L 140 59 L 139 44 L 136 45 L 114 46 L 95 51 L 92 50 L 79 76 L 72 83 L 69 83 L 72 67 L 73 51 L 74 50 L 74 26 L 73 18 Z M 100 19 L 98 31 L 96 36 L 97 37 L 105 30 L 107 30 L 105 27 Q 106 24 103 25 L 100 19 Z M 39 31 L 32 35 L 26 42 L 28 41 Q 37 40 43 42 L 42 40 L 43 35 Q 45 29 39 31 Z M 121 32 L 118 39 L 116 42 Q 121 44 123 41 L 134 41 L 135 42 L 136 42 L 127 33 L 121 32 Z M 108 34 L 96 44 L 97 47 Q 103 43 112 43 L 109 36 Q 110 33 108 34 Z M 58 37 Q 54 42 47 43 L 58 44 L 65 47 L 65 44 L 58 37 Z M 140 87 L 130 92 L 132 96 L 140 96 L 141 95 L 141 88 L 140 87 Z " /><path fill="rgb(50,8,19)" stroke="rgb(50,8,19)" stroke-width="1" opacity="1" d="M 18.5 18 L 14.5 23 L 4.5 29 L 0 30 L 1.5 26 L 18.5 18 Z " /><path fill="rgb(50,8,19)" stroke="rgb(50,8,19)" stroke-width="1" opacity="1" d="M 152.5 44 L 154 61.5 L 160 89.5 L 160 100.5 L 159 100.5 L 152 62.5 L 152.5 44 Z " /><path fill="rgb(50,8,19)" stroke="rgb(50,8,19)" stroke-width="1" opacity="1" d="M 24.5 55 L 48.5 56 Q 58.9 58.1 64 65.5 Q 67.4 70.7 66 80 Q 62 81.4 64 74.5 L 59.5 69 Q 58 76.5 52.5 80 Q 49.6 82.6 43.5 82 L 42.5 80 Q 44.8 80.8 44 78.5 L 45 74.5 L 42.5 71 L 37.5 70 L 32.5 74 L 31 65.5 L 33 61.5 L 29.5 61 L 25 67.5 L 25 70 L 22 68.5 L 21 58.5 L 24.5 55 Z " /><path fill="rgb(50,8,19)" stroke="rgb(50,8,19)" stroke-width="1" opacity="1" d="M 29.5 81 Q 31.7 85.8 37.5 87 L 56 88.5 L 43.5 91 Q 33.1 88.4 29.5 81 Z " /><path fill="rgb(50,8,19)" stroke="rgb(50,8,19)" stroke-width="1" opacity="1" d="M 130.5 81 L 125.5 87 Q 121.7 90.7 114.5 91 L 105 88.5 L 122.5 87 Q 128.3 85.8 130.5 81 Z " /><path fill="rgb(50,8,19)" stroke="rgb(50,8,19)" stroke-width="1" opacity="1" d="M 78.5 97 L 78 98.5 L 76 102.5 L 83.5 103 L 83 101.5 L 82 98 L 86 100.5 L 84.5 104 Q 76.3 105.1 73 103 L 76.5 98 L 78.5 97 Z " /><path fill="rgb(50,8,19)" stroke="rgb(50,8,19)" stroke-width="1" opacity="1" d="M 72.5 125 L 87.5 125 L 92 127.5 L 88.5 129 L 87.5 128 L 67 127.5 L 72.5 125 Z " /><path fill="rgb(50,8,19)" stroke="rgb(50,8,19)" stroke-width="1" opacity="1" d="M 33.5 152 L 53 159.5 L 47.5 160 L 36.5 155 L 33.5 152 Z " /><path fill="rgb(50,8,19)" stroke="rgb(50,8,19)" stroke-width="1" opacity="1" d="M 117.5 154 L 114.5 158 Q 110.5 161 102.5 160 L 102.5 159 L 105.5 159 L 117.5 154 Z " /><path fill="rgb(232,65,41)" stroke="rgb(232,65,41)" stroke-width="1" opacity="1" d="M 26.5 0 L 46 0.5 L 44 1 Q 34.5 19.8 18.5 33 L 7.5 40 L 0 42 L 0 31.5 L 1.5 31 Q 14.2 26.2 22 16.5 L 20.5 16 Q 11.4 22.7 0 26 L 0 20.5 L 1.5 20 Q 14.1 14.1 23 4.5 L 26.5 0 Z " /><path fill="rgb(232,65,41)" stroke="rgb(232,65,41)" stroke-width="1" opacity="1" d="M 49 0 L 95 0 L 95 17.5 L 94 18.5 L 93 30.5 L 88 47.5 L 75.5 73 L 75 69.5 L 78 55.5 L 78 26.5 L 74 14.5 L 74 6.5 L 72.5 5 L 70 6.5 Q 66.5 23 55.5 32 L 55 30.5 L 56 29.5 L 56 18.5 Q 53.8 17.3 55 12.5 L 52.5 9 L 49.5 8 L 46.5 10 L 46 7.5 L 49 0 Z " /><path fill="rgb(232,65,41)" stroke="rgb(232,65,41)" stroke-width="1" opacity="1" d="M 100.5 0 L 121.5 0 L 123 1.5 L 123 10.5 L 121 18.5 L 114.5 33 L 112 26.5 L 110 14.5 L 105.5 9 L 101 8 L 100.5 0 Z " /><path fill="rgb(232,65,41)" stroke="rgb(232,65,41)" stroke-width="1" opacity="1" d="M 127 0 L 142.5 0 L 144 1.5 L 154.5 15 L 160 18 L 159.5 31 L 149.5 26 L 128 7.5 L 127 0 Z " /><path fill="rgb(232,65,41)" stroke="rgb(232,65,41)" stroke-width="1" opacity="1" d="M 131.5 16 L 133.5 19 L 131.5 16 Z " /><path fill="rgb(232,65,41)" stroke="rgb(232,65,41)" stroke-width="1" opacity="1" d="M 31.5 27 L 29.5 30 L 31.5 27 Z " /><path fill="rgb(232,65,41)" stroke="rgb(232,65,41)" stroke-width="1" opacity="1" d="M 143.5 28 L 152 33 L 151 36.5 L 151 57.5 L 152 58.5 L 152 65.5 L 153 66.5 L 155 84.5 L 160 104.5 L 160 156.5 L 159 156.5 L 147 103.5 L 143 37.5 Q 145.5 36 144 30.5 L 143.5 28 Z " /><path fill="rgb(232,65,41)" stroke="rgb(232,65,41)" stroke-width="1" opacity="1" d="M 135.5 32 L 138 33.5 L 136.5 34 L 135.5 32 Z " /><path fill="rgb(232,65,41)" stroke="rgb(232,65,41)" stroke-width="1" opacity="1" d="M 63.5 35 L 66.5 39 L 63.5 35 Z " /><path fill="rgb(232,65,41)" stroke="rgb(232,65,41)" stroke-width="1" opacity="1" d="M 19.5 40 L 20 42.5 L 19 42.5 L 19.5 40 Z " /><path fill="rgb(232,65,41)" stroke="rgb(232,65,41)" stroke-width="1" opacity="1" d="M 12.5 42 L 14 42.5 L 14 83.5 L 13 84.5 L 13 91.5 L 8 117.5 L 6 135.5 L 5 136.5 L 3 160 L 0 159.5 L 0 122.5 L 7 82.5 L 7 76.5 L 8 75.5 L 11 43.5 L 12.5 42 Z " /><path fill="rgb(232,65,41)" stroke="rgb(232,65,41)" stroke-width="1" opacity="1" d="M 19.5 45 L 20 49.5 L 19 49.5 L 19.5 45 Z " /><path fill="rgb(232,65,41)" stroke="rgb(232,65,41)" stroke-width="1" opacity="1" d="M 118.5 46 L 121 46.5 L 118.5 47 L 118.5 46 Z " /><path fill="rgb(232,65,41)" stroke="rgb(232,65,41)" stroke-width="1" opacity="1" d="M 138.5 47 L 139 49.5 L 138 49.5 L 138.5 47 Z " /><path fill="rgb(232,65,41)" stroke="rgb(232,65,41)" stroke-width="1" opacity="1" d="M 20 88 L 30 93.5 L 26.5 96 L 24.5 96 L 20 95 L 20 88 Z " /><path fill="rgb(232,65,41)" stroke="rgb(232,65,41)" stroke-width="1" opacity="1" d="M 138.5 88 Q 141.5 87.5 140 94.5 Q 138.5 97.5 132.5 96 Q 128 94 131.5 92 L 138.5 88 Z " /><path fill="rgb(232,65,41)" stroke="rgb(232,65,41)" stroke-width="1" opacity="1" d="M 16.5 104 L 17 119.5 L 16 120.5 L 16 160 L 9 160 L 9 156.5 L 10 155.5 L 11 139.5 L 12 138.5 L 16.5 104 Z " /><path fill="rgb(232,65,41)" stroke="rgb(232,65,41)" stroke-width="1" opacity="1" d="M 147.5 117 L 158 160 Q 153.4 161.3 152 158.5 L 152 153.5 L 147 128.5 L 147.5 117 Z " /><path fill="rgb(131,25,33)" stroke="rgb(131,25,33)" stroke-width="1" opacity="1" d="M 0 0 L 26 0.5 L 20.5 7 L 7.5 17 L 0 20 L 0 0 Z " /><path fill="rgb(131,25,33)" stroke="rgb(131,25,33)" stroke-width="1" opacity="1" d="M 143.5 0 L 160 0 L 160 18 L 149 9.5 L 143.5 0 Z " /><path fill="rgb(131,25,33)" stroke="rgb(131,25,33)" stroke-width="1" opacity="1" d="M 100.5 1 L 101 8 Q 105.9 7.9 108 11.5 Q 112 16.5 112 25.5 L 111 25.5 Q 109.4 18.6 103.5 16 L 100 15 L 101 8.5 Q 98.2 6.7 100.5 1 Z " /><path fill="rgb(131,25,33)" stroke="rgb(131,25,33)" stroke-width="1" opacity="1" d="M 43.5 3 L 42.5 5 L 43.5 3 Z " /><path fill="rgb(131,25,33)" stroke="rgb(131,25,33)" stroke-width="1" opacity="1" d="M 47.5 3 L 48 4.5 L 46.5 7 L 46 5.5 L 47.5 3 Z " /><path fill="rgb(131,25,33)" stroke="rgb(131,25,33)" stroke-width="1" opacity="1" d="M 95.5 4 L 96 12.5 L 95 12.5 L 95.5 4 Z " /><path fill="rgb(131,25,33)" stroke="rgb(131,25,33)" stroke-width="1" opacity="1" d="M 71.5 5 L 74 6.5 Q 72.7 13.3 75 16.5 L 74 16.5 L 73 6 Q 70 4.8 71 8.5 L 70 8.5 L 71.5 5 Z " /><path fill="rgb(131,25,33)" stroke="rgb(131,25,33)" stroke-width="1" opacity="1" d="M 41.5 6 L 40.5 8 L 41.5 6 Z " /><path fill="rgb(131,25,33)" stroke="rgb(131,25,33)" stroke-width="1" opacity="1" d="M 49.5 8 L 54 10.5 L 56 18.5 L 56 29.5 L 55 31.5 L 61 27.5 Q 56.7 35.1 48 37 L 46 10.5 L 49.5 8 Z " /><path fill="rgb(131,25,33)" stroke="rgb(131,25,33)" stroke-width="1" opacity="1" d="M 39.5 9 L 38.5 11 L 39.5 9 Z " /><path fill="rgb(131,25,33)" stroke="rgb(131,25,33)" stroke-width="1" opacity="1" d="M 122.5 11 L 123 13.5 L 122 13.5 L 122.5 11 Z " /><path fill="rgb(131,25,33)" stroke="rgb(131,25,33)" stroke-width="1" opacity="1" d="M 132.5 11 L 149 25.5 L 146.5 24 Q 137 19.2 132.5 11 Z " /><path fill="rgb(131,25,33)" stroke="rgb(131,25,33)" stroke-width="1" opacity="1" d="M 37.5 12 L 35.5 15 L 37.5 12 Z " /><path fill="rgb(131,25,33)" stroke="rgb(131,25,33)" stroke-width="1" opacity="1" d="M 127 12 L 133 16.5 L 128 13.5 L 127.5 16 L 127 12 Z " /><path fill="rgb(131,25,33)" stroke="rgb(131,25,33)" stroke-width="1" opacity="1" d="M 68.5 13 L 69 14.5 L 65.5 20 L 66 18.5 L 68.5 13 Z " /><path fill="rgb(131,25,33)" stroke="rgb(131,25,33)" stroke-width="1" opacity="1" d="M 23.5 14 L 15.5 23 L 18.5 17 L 23.5 14 Z " /><path fill="rgb(131,25,33)" stroke="rgb(131,25,33)" stroke-width="1" opacity="1" d="M 41.5 14 Q 44.9 13.1 43 18.5 L 42 18.5 L 41.5 15 L 39 16.5 L 41.5 14 Z " /><path fill="rgb(131,25,33)" stroke="rgb(131,25,33)" stroke-width="1" opacity="1" d="M 34.5 16 L 32.5 19 L 34.5 16 Z " /><path fill="rgb(131,25,33)" stroke="rgb(131,25,33)" stroke-width="1" opacity="1" d="M 38.5 18 L 36.5 21 L 38.5 18 Z " /><path fill="rgb(131,25,33)" stroke="rgb(131,25,33)" stroke-width="1" opacity="1" d="M 72.5 18 L 73 21.5 L 72 21.5 L 71 19.5 L 72.5 18 Z " /><path fill="rgb(131,25,33)" stroke="rgb(131,25,33)" stroke-width="1" opacity="1" d="M 75.5 18 L 77 23.5 L 76 23.5 L 75.5 18 Z " /><path fill="rgb(131,25,33)" stroke="rgb(131,25,33)" stroke-width="1" opacity="1" d="M 99.5 19 Q 102.5 20.5 99.5 22 L 99.5 19 Z " /><path fill="rgb(131,25,33)" stroke="rgb(131,25,33)" stroke-width="1" opacity="1" d="M 134.5 19 L 136.5 22 L 134.5 19 Z " /><path fill="rgb(131,25,33)" stroke="rgb(131,25,33)" stroke-width="1" opacity="1" d="M 30.5 21 L 19.5 33 L 30.5 21 Z " /><path fill="rgb(131,25,33)" stroke="rgb(131,25,33)" stroke-width="1" opacity="1" d="M 64.5 21 L 64 22.5 L 61.5 26 L 63 23.5 L 64.5 21 Z " /><path fill="rgb(131,25,33)" stroke="rgb(131,25,33)" stroke-width="1" opacity="1" d="M 70.5 21 L 69.5 23 L 70.5 21 Z " /><path fill="rgb(131,25,33)" stroke="rgb(131,25,33)" stroke-width="1" opacity="1" d="M 8.5 22 L 10 22.5 L 4.5 25 L 4.5 24 L 8.5 22 Z " /><path fill="rgb(131,25,33)" stroke="rgb(131,25,33)" stroke-width="1" opacity="1" d="M 35.5 22 L 30.5 28 L 35.5 22 Z " /><path fill="rgb(131,25,33)" stroke="rgb(131,25,33)" stroke-width="1" opacity="1" d="M 101.5 22 L 102.5 24 L 101.5 22 Z " /><path fill="rgb(131,25,33)" stroke="rgb(131,25,33)" stroke-width="1" opacity="1" d="M 13.5 23 L 11.5 26 L 9.5 27 L 10.5 25 L 13.5 23 Z " /><path fill="rgb(131,25,33)" stroke="rgb(131,25,33)" stroke-width="1" opacity="1" d="M 68.5 24 L 67.5 26 L 68.5 24 Z " /><path fill="rgb(131,25,33)" stroke="rgb(131,25,33)" stroke-width="1" opacity="1" d="M 73.5 25 L 74 49.5 L 73 49.5 L 73.5 25 Z " /><path fill="rgb(131,25,33)" stroke="rgb(131,25,33)" stroke-width="1" opacity="1" d="M 93.5 25 L 94 28.5 L 93 28.5 L 93.5 25 Z " /><path fill="rgb(131,25,33)" stroke="rgb(131,25,33)" stroke-width="1" opacity="1" d="M 77.5 26 L 78 30.5 L 77 30.5 L 77.5 26 Z " /><path fill="rgb(131,25,33)" stroke="rgb(131,25,33)" stroke-width="1" opacity="1" d="M 150.5 26 L 154 28.5 L 152.5 28 L 150.5 26 Z " /><path fill="rgb(131,25,33)" stroke="rgb(131,25,33)" stroke-width="1" opacity="1" d="M 143.5 27 L 144.5 29 L 143.5 27 Z " /><path fill="rgb(131,25,33)" stroke="rgb(131,25,33)" stroke-width="1" opacity="1" d="M 65.5 28 L 63.5 31 L 65.5 28 Z " /><path fill="rgb(131,25,33)" stroke="rgb(131,25,33)" stroke-width="1" opacity="1" d="M 2.5 29 L 4 29.5 L 0.5 31 L 0.5 30 L 2.5 29 Z " /><path fill="rgb(131,25,33)" stroke="rgb(131,25,33)" stroke-width="1" opacity="1" d="M 137.5 29 L 138 32.5 L 137 32.5 L 137.5 29 Z " /><path fill="rgb(131,25,33)" stroke="rgb(131,25,33)" stroke-width="1" opacity="1" d="M 146.5 29 L 147.5 31 L 146.5 29 Z " /><path fill="rgb(131,25,33)" stroke="rgb(131,25,33)" stroke-width="1" opacity="1" d="M 155.5 29 L 159 30.5 L 157.5 31 L 155.5 29 Z " /><path fill="rgb(131,25,33)" stroke="rgb(131,25,33)" stroke-width="1" opacity="1" d="M 143.5 30 L 144 32.5 L 143 32.5 L 143.5 30 Z " /><path fill="rgb(131,25,33)" stroke="rgb(131,25,33)" stroke-width="1" opacity="1" d="M 38.5 31 Q 44.8 28.8 43 34.5 L 42 39.5 L 43 42 Q 37.4 40.1 27.5 41 L 26 41.5 L 31.5 35 L 38.5 31 Z " /><path fill="rgb(131,25,33)" stroke="rgb(131,25,33)" stroke-width="1" opacity="1" d="M 92.5 31 L 93 33.5 L 92 33.5 L 92.5 31 Z " /><path fill="rgb(131,25,33)" stroke="rgb(131,25,33)" stroke-width="1" opacity="1" d="M 133.5 31 L 134.5 33 L 133.5 31 Z " /><path fill="rgb(131,25,33)" stroke="rgb(131,25,33)" stroke-width="1" opacity="1" d="M 149.5 31 L 160 36.5 L 159.5 89 L 154 61.5 L 152.5 44 L 151.5 58 L 151 36.5 L 152 33 L 149.5 31 Z " /><path fill="rgb(131,25,33)" stroke="rgb(131,25,33)" stroke-width="1" opacity="1" d="M 101.5 32 L 99.5 35 L 101.5 32 Z " /><path fill="rgb(131,25,33)" stroke="rgb(131,25,33)" stroke-width="1" opacity="1" d="M 115.5 32 L 114.5 34 L 115.5 32 Z " /><path fill="rgb(131,25,33)" stroke="rgb(131,25,33)" stroke-width="1" opacity="1" d="M 121 32 L 126.5 33 L 136 41.5 L 134.5 42 L 133.5 41 L 122.5 41 Q 121 43.5 115.5 42 L 118 38.5 L 121 32 Z " /><path fill="rgb(131,25,33)" stroke="rgb(131,25,33)" stroke-width="1" opacity="1" d="M 17.5 33 L 16.5 35 L 17.5 33 Z " /><path fill="rgb(131,25,33)" stroke="rgb(131,25,33)" stroke-width="1" opacity="1" d="M 107.5 34 Q 109.8 33.3 109 35.5 L 112 43 Q 102.8 43 96.5 47 L 96 43.5 L 107.5 34 Z " /><path fill="rgb(131,25,33)" stroke="rgb(131,25,33)" stroke-width="1" opacity="1" d="M 91.5 35 L 92 37.5 L 91 37.5 L 91.5 35 Z " /><path fill="rgb(131,25,33)" stroke="rgb(131,25,33)" stroke-width="1" opacity="1" d="M 11.5 37 L 10.5 39 L 11.5 37 Z " /><path fill="rgb(131,25,33)" stroke="rgb(131,25,33)" stroke-width="1" opacity="1" d="M 57.5 37 L 65 43.5 L 64.5 47 L 57.5 44 L 47 42.5 Q 54.3 41.8 57.5 37 Z " /><path fill="rgb(131,25,33)" stroke="rgb(131,25,33)" stroke-width="1" opacity="1" d="M 66.5 39 L 67.5 41 L 66.5 39 Z " /><path fill="rgb(131,25,33)" stroke="rgb(131,25,33)" stroke-width="1" opacity="1" d="M 13.5 41 L 15 41.5 L 15 62.5 L 14 62.5 L 14 42.5 L 13.5 41 Z " /><path fill="rgb(131,25,33)" stroke="rgb(131,25,33)" stroke-width="1" opacity="1" d="M 20.5 42 L 21.5 44 L 20.5 42 Z " /><path fill="rgb(131,25,33)" stroke="rgb(131,25,33)" stroke-width="1" opacity="1" d="M 7.5 44 L 9 44.5 L 9 51.5 L 0.5 99 L 0 46 L 7.5 44 Z " /><path fill="rgb(131,25,33)" stroke="rgb(131,25,33)" stroke-width="1" opacity="1" d="M 138.5 44 L 139 46.5 L 138 46.5 L 138.5 44 Z " /><path fill="rgb(131,25,33)" stroke="rgb(131,25,33)" stroke-width="1" opacity="1" d="M 10.5 45 L 11 49.5 L 10 49.5 L 10.5 45 Z " /><path fill="rgb(131,25,33)" stroke="rgb(131,25,33)" stroke-width="1" opacity="1" d="M 28.5 45 L 36 45.5 L 28.5 46 L 28.5 45 Z " /><path fill="rgb(131,25,33)" stroke="rgb(131,25,33)" stroke-width="1" opacity="1" d="M 123.5 45 L 133 45.5 L 123.5 46 L 123.5 45 Z " /><path fill="rgb(131,25,33)" stroke="rgb(131,25,33)" stroke-width="1" opacity="1" d="M 40.5 46 L 43 46.5 L 40.5 47 L 40.5 46 Z " /><path fill="rgb(131,25,33)" stroke="rgb(131,25,33)" stroke-width="1" opacity="1" d="M 113.5 46 L 118 46.5 L 113.5 47 L 113.5 46 Z " /><path fill="rgb(131,25,33)" stroke="rgb(131,25,33)" stroke-width="1" opacity="1" d="M 108.5 47 L 111 47.5 L 108.5 48 L 108.5 47 Z " /><path fill="rgb(131,25,33)" stroke="rgb(131,25,33)" stroke-width="1" opacity="1" d="M 143.5 47 L 144 50.5 L 143 50.5 L 143.5 47 Z " /><path fill="rgb(131,25,33)" stroke="rgb(131,25,33)" stroke-width="1" opacity="1" d="M 87.5 48 L 88 49.5 L 86.5 52 L 86 50.5 L 87.5 48 Z " /><path fill="rgb(131,25,33)" stroke="rgb(131,25,33)" stroke-width="1" opacity="1" d="M 63.5 50 L 66 50.5 L 63.5 51 L 63.5 50 Z " /><path fill="rgb(131,25,33)" stroke="rgb(131,25,33)" stroke-width="1" opacity="1" d="M 77.5 50 L 78 55.5 L 77 55.5 L 77.5 50 Z " /><path fill="rgb(131,25,33)" stroke="rgb(131,25,33)" stroke-width="1" opacity="1" d="M 139.5 51 L 140 58.5 L 139 58.5 L 137 55.5 L 139 55.5 L 139.5 51 Z " /><path fill="rgb(131,25,33)" stroke="rgb(131,25,33)" stroke-width="1" opacity="1" d="M 85.5 53 L 86 54.5 L 84.5 57 L 84 55.5 L 85.5 53 Z " /><path fill="rgb(131,25,33)" stroke="rgb(131,25,33)" stroke-width="1" opacity="1" d="M 9.5 54 L 10 59.5 L 9 59.5 L 9.5 54 Z " /><path fill="rgb(131,25,33)" stroke="rgb(131,25,33)" stroke-width="1" opacity="1" d="M 26.5 54 L 29 54.5 L 26.5 55 L 26.5 54 Z " /><path fill="rgb(131,25,33)" stroke="rgb(131,25,33)" stroke-width="1" opacity="1" d="M 132.5 54 L 135 54.5 L 132.5 55 L 132.5 54 Z " /><path fill="rgb(131,25,33)" stroke="rgb(131,25,33)" stroke-width="1" opacity="1" d="M 72.5 55 L 73 58.5 L 72 58.5 L 72.5 55 Z " /><path fill="rgb(131,25,33)" stroke="rgb(131,25,33)" stroke-width="1" opacity="1" d="M 144.5 58 L 145 61.5 L 144 61.5 L 144.5 58 Z " /><path fill="rgb(131,25,33)" stroke="rgb(131,25,33)" stroke-width="1" opacity="1" d="M 76.5 59 L 77 62.5 L 76 62.5 L 76.5 59 Z " /><path fill="rgb(131,25,33)" stroke="rgb(131,25,33)" stroke-width="1" opacity="1" d="M 71.5 62 L 72 66.5 L 71 66.5 L 71.5 62 Z " /><path fill="rgb(131,25,33)" stroke="rgb(131,25,33)" stroke-width="1" opacity="1" d="M 152.5 63 L 153 65.5 L 152 65.5 L 152.5 63 Z " /><path fill="rgb(131,25,33)" stroke="rgb(131,25,33)" stroke-width="1" opacity="1" d="M 8.5 64 L 9 67.5 L 8 67.5 L 8.5 64 Z " /><path fill="rgb(131,25,33)" stroke="rgb(131,25,33)" stroke-width="1" opacity="1" d="M 26.5 66 L 26 67.5 L 25.5 69 L 25 67.5 L 26.5 66 Z " /><path fill="rgb(131,25,33)" stroke="rgb(131,25,33)" stroke-width="1" opacity="1" d="M 75.5 66 L 76 68.5 L 75 68.5 L 75.5 66 Z " /><path fill="rgb(131,25,33)" stroke="rgb(131,25,33)" stroke-width="1" opacity="1" d="M 137.5 68 L 138 69.5 L 136 70.5 L 137.5 68 Z " /><path fill="rgb(131,25,33)" stroke="rgb(131,25,33)" stroke-width="1" opacity="1" d="M 22.5 69 L 25 70.5 L 23.5 71 L 22.5 69 Z " /><path fill="rgb(131,25,33)" stroke="rgb(131,25,33)" stroke-width="1" opacity="1" d="M 70.5 69 L 71 72.5 L 70 72.5 L 70.5 69 Z " /><path fill="rgb(131,25,33)" stroke="rgb(131,25,33)" stroke-width="1" opacity="1" d="M 153.5 69 L 154 72.5 L 153 72.5 L 153.5 69 Z " /><path fill="rgb(131,25,33)" stroke="rgb(131,25,33)" stroke-width="1" opacity="1" d="M 74.5 71 L 75 74.5 L 74 74.5 L 74.5 71 Z " /><path fill="rgb(131,25,33)" stroke="rgb(131,25,33)" stroke-width="1" opacity="1" d="M 81.5 71 L 80.5 73 L 81.5 71 Z " /><path fill="rgb(131,25,33)" stroke="rgb(131,25,33)" stroke-width="1" opacity="1" d="M 7.5 72 L 8 75.5 L 7 75.5 L 7.5 72 Z " /><path fill="rgb(131,25,33)" stroke="rgb(131,25,33)" stroke-width="1" opacity="1" d="M 140.5 73 L 141 85.5 L 140 85.5 L 140.5 73 Z " /><path fill="rgb(131,25,33)" stroke="rgb(131,25,33)" stroke-width="1" opacity="1" d="M 154.5 75 L 155 78.5 L 154 78.5 L 154.5 75 Z " /><path fill="rgb(131,25,33)" stroke="rgb(131,25,33)" stroke-width="1" opacity="1" d="M 133.5 76 L 133 77.5 L 131.5 81 L 130 81.5 L 131 82.5 L 126.5 87 L 124 85.5 L 132 78.5 L 133.5 76 Z " /><path fill="rgb(131,25,33)" stroke="rgb(131,25,33)" stroke-width="1" opacity="1" d="M 145.5 76 L 146 83.5 L 145 83.5 L 145.5 76 Z " /><path fill="rgb(131,25,33)" stroke="rgb(131,25,33)" stroke-width="1" opacity="1" d="M 55.5 77 L 54.5 79 L 55.5 77 Z " /><path fill="rgb(131,25,33)" stroke="rgb(131,25,33)" stroke-width="1" opacity="1" d="M 27.5 78 L 36 85.5 L 33.5 87 L 29 82.5 L 29.5 81 L 27 79.5 L 27.5 78 Z " /><path fill="rgb(131,25,33)" stroke="rgb(131,25,33)" stroke-width="1" opacity="1" d="M 6.5 79 L 7 82.5 L 6 82.5 L 6.5 79 Z " /><path fill="rgb(131,25,33)" stroke="rgb(131,25,33)" stroke-width="1" opacity="1" d="M 75.5 79 L 71.5 84 L 70 83.5 L 75.5 79 Z " /><path fill="rgb(131,25,33)" stroke="rgb(131,25,33)" stroke-width="1" opacity="1" d="M 113.5 80 L 112.5 82 L 113.5 80 Z " /><path fill="rgb(131,25,33)" stroke="rgb(131,25,33)" stroke-width="1" opacity="1" d="M 155.5 81 L 156 84.5 L 155 84.5 L 155.5 81 Z " /><path fill="rgb(131,25,33)" stroke="rgb(131,25,33)" stroke-width="1" opacity="1" d="M 13.5 84 L 14 88.5 L 13 88.5 L 13.5 84 Z " /><path fill="rgb(131,25,33)" stroke="rgb(131,25,33)" stroke-width="1" opacity="1" d="M 19.5 85 L 22 86.5 L 20 87.5 L 19.5 85 Z " /><path fill="rgb(131,25,33)" stroke="rgb(131,25,33)" stroke-width="1" opacity="1" d="M 5.5 86 L 6 88.5 L 5 88.5 L 5.5 86 Z " /><path fill="rgb(131,25,33)" stroke="rgb(131,25,33)" stroke-width="1" opacity="1" d="M 37.5 86 L 40 86.5 L 37.5 87 L 37.5 86 Z " /><path fill="rgb(131,25,33)" stroke="rgb(131,25,33)" stroke-width="1" opacity="1" d="M 120.5 86 L 123 86.5 L 120.5 87 L 120.5 86 Z " /><path fill="rgb(131,25,33)" stroke="rgb(131,25,33)" stroke-width="1" opacity="1" d="M 138.5 86 L 141 87 L 141 94.5 L 139.5 96 L 140 94.5 Q 140.9 87.5 138.5 86 Z " /><path fill="rgb(131,25,33)" stroke="rgb(131,25,33)" stroke-width="1" opacity="1" d="M 35.5 87 L 39 89.5 L 37.5 90 L 35.5 87 Z " /><path fill="rgb(131,25,33)" stroke="rgb(131,25,33)" stroke-width="1" opacity="1" d="M 42.5 87 L 52 87.5 L 42.5 88 L 42.5 87 Z " /><path fill="rgb(131,25,33)" stroke="rgb(131,25,33)" stroke-width="1" opacity="1" d="M 55.5 87 L 61 87.5 L 56.5 89 L 55.5 87 Z " /><path fill="rgb(131,25,33)" stroke="rgb(131,25,33)" stroke-width="1" opacity="1" d="M 99.5 87 L 106 87.5 L 105.5 89 L 108 89.5 L 105.5 90 L 99.5 88 L 99.5 87 Z " /><path fill="rgb(131,25,33)" stroke="rgb(131,25,33)" stroke-width="1" opacity="1" d="M 109.5 87 L 117 87.5 L 109.5 88 L 109.5 87 Z " /><path fill="rgb(131,25,33)" stroke="rgb(131,25,33)" stroke-width="1" opacity="1" d="M 124.5 87 L 122.5 90 L 121 89.5 L 124.5 87 Z " /><path fill="rgb(131,25,33)" stroke="rgb(131,25,33)" stroke-width="1" opacity="1" d="M 156.5 87 L 157 89.5 L 156 89.5 L 156.5 87 Z " /><path fill="rgb(131,25,33)" stroke="rgb(131,25,33)" stroke-width="1" opacity="1" d="M 52.5 89 L 55 89.5 L 52.5 90 L 52.5 89 Z " /><path fill="rgb(131,25,33)" stroke="rgb(131,25,33)" stroke-width="1" opacity="1" d="M 26.5 90 L 27.5 92 L 26.5 90 Z " /><path fill="rgb(131,25,33)" stroke="rgb(131,25,33)" stroke-width="1" opacity="1" d="M 30.5 90 L 32.5 93 L 30.5 90 Z " /><path fill="rgb(131,25,33)" stroke="rgb(131,25,33)" stroke-width="1" opacity="1" d="M 40.5 90 L 43 90.5 L 40.5 91 L 40.5 90 Z " /><path fill="rgb(131,25,33)" stroke="rgb(131,25,33)" stroke-width="1" opacity="1" d="M 48.5 90 L 51 90.5 L 48.5 91 L 48.5 90 Z " /><path fill="rgb(131,25,33)" stroke="rgb(131,25,33)" stroke-width="1" opacity="1" d="M 109.5 90 L 114 90.5 L 109.5 91 L 109.5 90 Z " /><path fill="rgb(131,25,33)" stroke="rgb(131,25,33)" stroke-width="1" opacity="1" d="M 117.5 90 L 120 90.5 L 117.5 91 L 117.5 90 Z " /><path fill="rgb(131,25,33)" stroke="rgb(131,25,33)" stroke-width="1" opacity="1" d="M 129.5 90 L 127.5 93 L 129.5 90 Z " /><path fill="rgb(131,25,33)" stroke="rgb(131,25,33)" stroke-width="1" opacity="1" d="M 133.5 90 L 132.5 92 L 133.5 90 Z " /><path fill="rgb(131,25,33)" stroke="rgb(131,25,33)" stroke-width="1" opacity="1" d="M 4.5 92 L 5 94.5 L 4 94.5 L 4.5 92 Z " /><path fill="rgb(131,25,33)" stroke="rgb(131,25,33)" stroke-width="1" opacity="1" d="M 12.5 92 L 13 95.5 L 12 95.5 L 12.5 92 Z " /><path fill="rgb(131,25,33)" stroke="rgb(131,25,33)" stroke-width="1" opacity="1" d="M 157.5 92 L 158 94.5 L 157 94.5 L 157.5 92 Z " /><path fill="rgb(131,25,33)" stroke="rgb(131,25,33)" stroke-width="1" opacity="1" d="M 29.5 94 L 28.5 96 L 29.5 94 Z " /><path fill="rgb(131,25,33)" stroke="rgb(131,25,33)" stroke-width="1" opacity="1" d="M 130.5 94 L 131.5 96 L 130.5 94 Z " /><path fill="rgb(131,25,33)" stroke="rgb(131,25,33)" stroke-width="1" opacity="1" d="M 146.5 95 L 147 99.5 L 146 99.5 L 146.5 95 Z " /><path fill="rgb(131,25,33)" stroke="rgb(131,25,33)" stroke-width="1" opacity="1" d="M 32.5 96 L 31.5 98 L 32.5 96 Z " /><path fill="rgb(131,25,33)" stroke="rgb(131,25,33)" stroke-width="1" opacity="1" d="M 77.5 97 L 78.5 99 L 77.5 97 Z " /><path fill="rgb(131,25,33)" stroke="rgb(131,25,33)" stroke-width="1" opacity="1" d="M 81 97 L 83 97.5 L 81 98.5 L 81 97 Z " /><path fill="rgb(131,25,33)" stroke="rgb(131,25,33)" stroke-width="1" opacity="1" d="M 158.5 97 L 159 99.5 L 158 99.5 L 158.5 97 Z " /><path fill="rgb(131,25,33)" stroke="rgb(131,25,33)" stroke-width="1" opacity="1" d="M 3.5 98 L 4 101.5 L 3 101.5 L 3.5 98 Z " /><path fill="rgb(131,25,33)" stroke="rgb(131,25,33)" stroke-width="1" opacity="1" d="M 132.5 98 L 139 98.5 L 132.5 99 L 132.5 98 Z " /><path fill="rgb(131,25,33)" stroke="rgb(131,25,33)" stroke-width="1" opacity="1" d="M 11.5 99 L 12 102.5 L 11 102.5 L 11.5 99 Z " /><path fill="rgb(131,25,33)" stroke="rgb(131,25,33)" stroke-width="1" opacity="1" d="M 16.5 101 L 17 103.5 L 16 103.5 L 16.5 101 Z " /><path fill="rgb(131,25,33)" stroke="rgb(131,25,33)" stroke-width="1" opacity="1" d="M 86.5 101 L 87 102.5 L 85 103.5 L 86.5 101 Z " /><path fill="rgb(131,25,33)" stroke="rgb(131,25,33)" stroke-width="1" opacity="1" d="M 159.5 101 L 160 103.5 L 159 103.5 L 159.5 101 Z " /><path fill="rgb(131,25,33)" stroke="rgb(131,25,33)" stroke-width="1" opacity="1" d="M 76.5 102 L 79 102.5 L 76.5 103 L 76.5 102 Z " /><path fill="rgb(131,25,33)" stroke="rgb(131,25,33)" stroke-width="1" opacity="1" d="M 81.5 102 L 84 102.5 L 81.5 103 L 81.5 102 Z " /><path fill="rgb(131,25,33)" stroke="rgb(131,25,33)" stroke-width="1" opacity="1" d="M 2.5 104 L 3 107.5 L 2 107.5 L 2.5 104 Z " /><path fill="rgb(131,25,33)" stroke="rgb(131,25,33)" stroke-width="1" opacity="1" d="M 77.5 104 L 83 104.5 L 77.5 105 L 77.5 104 Z " /><path fill="rgb(131,25,33)" stroke="rgb(131,25,33)" stroke-width="1" opacity="1" d="M 147.5 104 L 148 106.5 L 147 106.5 L 147.5 104 Z " /><path fill="rgb(131,25,33)" stroke="rgb(131,25,33)" stroke-width="1" opacity="1" d="M 10.5 105 L 11 108.5 L 10 108.5 L 10.5 105 Z " /><path fill="rgb(131,25,33)" stroke="rgb(131,25,33)" stroke-width="1" opacity="1" d="M 141.5 106 L 142 114.5 L 141 114.5 L 141.5 106 Z " /><path fill="rgb(131,25,33)" stroke="rgb(131,25,33)" stroke-width="1" opacity="1" d="M 15.5 108 L 16 110.5 L 15 110.5 L 15.5 108 Z " /><path fill="rgb(131,25,33)" stroke="rgb(131,25,33)" stroke-width="1" opacity="1" d="M 20.5 109 L 21 116.5 L 20 116.5 L 20.5 109 Z " /><path fill="rgb(131,25,33)" stroke="rgb(131,25,33)" stroke-width="1" opacity="1" d="M 1.5 110 L 2 114.5 L 1 114.5 L 1.5 110 Z " /><path fill="rgb(131,25,33)" stroke="rgb(131,25,33)" stroke-width="1" opacity="1" d="M 148.5 110 L 149 112.5 L 146.5 122 L 146 112.5 L 148 112.5 L 148.5 110 Z " /><path fill="rgb(131,25,33)" stroke="rgb(131,25,33)" stroke-width="1" opacity="1" d="M 9.5 111 L 10 114.5 L 9 114.5 L 9.5 111 Z " /><path fill="rgb(131,25,33)" stroke="rgb(131,25,33)" stroke-width="1" opacity="1" d="M 14.5 115 L 15 117.5 L 14 117.5 L 14.5 115 Z " /><path fill="rgb(131,25,33)" stroke="rgb(131,25,33)" stroke-width="1" opacity="1" d="M 149.5 115 L 150 117.5 L 148.5 121 L 148 118.5 L 149.5 115 Z " /><path fill="rgb(131,25,33)" stroke="rgb(131,25,33)" stroke-width="1" opacity="1" d="M 0.5 117 L 1 121.5 L 0 121.5 L 0.5 117 Z " /><path fill="rgb(131,25,33)" stroke="rgb(131,25,33)" stroke-width="1" opacity="1" d="M 8.5 117 L 9 120.5 L 8 120.5 L 8.5 117 Z " /><path fill="rgb(131,25,33)" stroke="rgb(131,25,33)" stroke-width="1" opacity="1" d="M 16.5 120 L 17 141.5 L 16 141.5 L 16.5 120 Z " /><path fill="rgb(131,25,33)" stroke="rgb(131,25,33)" stroke-width="1" opacity="1" d="M 150.5 120 L 151 122.5 L 149.5 125 L 149 123.5 L 150.5 120 Z " /><path fill="rgb(131,25,33)" stroke="rgb(131,25,33)" stroke-width="1" opacity="1" d="M 13.5 121 L 14 124.5 L 13 124.5 L 13.5 121 Z " /><path fill="rgb(131,25,33)" stroke="rgb(131,25,33)" stroke-width="1" opacity="1" d="M 7.5 124 L 8 126.5 L 7 126.5 L 7.5 124 Z " /><path fill="rgb(131,25,33)" stroke="rgb(131,25,33)" stroke-width="1" opacity="1" d="M 75.5 124 L 85 124.5 L 75.5 125 L 75.5 124 Z " /><path fill="rgb(131,25,33)" stroke="rgb(131,25,33)" stroke-width="1" opacity="1" d="M 21.5 125 L 25.5 130 L 21.5 125 Z " /><path fill="rgb(131,25,33)" stroke="rgb(131,25,33)" stroke-width="1" opacity="1" d="M 68.5 125 L 72 125.5 L 67.5 127 L 68.5 125 Z " /><path fill="rgb(131,25,33)" stroke="rgb(131,25,33)" stroke-width="1" opacity="1" d="M 88.5 125 L 92 126.5 L 90.5 126 Q 87.5 126.5 88.5 125 Z " /><path fill="rgb(131,25,33)" stroke="rgb(131,25,33)" stroke-width="1" opacity="1" d="M 151.5 125 L 152 126.5 L 150.5 130 L 150 127.5 L 151.5 125 Z " /><path fill="rgb(131,25,33)" stroke="rgb(131,25,33)" stroke-width="1" opacity="1" d="M 138.5 126 L 135.5 130 L 132 129.5 Q 137.1 129.6 138.5 126 Z " /><path fill="rgb(131,25,33)" stroke="rgb(131,25,33)" stroke-width="1" opacity="1" d="M 12.5 128 L 13 131.5 L 12 131.5 L 12.5 128 Z " /><path fill="rgb(131,25,33)" stroke="rgb(131,25,33)" stroke-width="1" opacity="1" d="M 67.5 128 L 88 128.5 L 67.5 129 L 67.5 128 Z " /><path fill="rgb(131,25,33)" stroke="rgb(131,25,33)" stroke-width="1" opacity="1" d="M 152.5 129 L 153 130.5 L 151.5 134 L 151 131.5 L 152.5 129 Z " /><path fill="rgb(131,25,33)" stroke="rgb(131,25,33)" stroke-width="1" opacity="1" d="M 6.5 130 L 7 133.5 L 6 133.5 L 6.5 130 Z " /><path fill="rgb(131,25,33)" stroke="rgb(131,25,33)" stroke-width="1" opacity="1" d="M 11.5 135 L 12 138.5 L 11 138.5 L 11.5 135 Z " /><path fill="rgb(131,25,33)" stroke="rgb(131,25,33)" stroke-width="1" opacity="1" d="M 148.5 135 L 149 137.5 L 148 137.5 L 148.5 135 Z " /><path fill="rgb(131,25,33)" stroke="rgb(131,25,33)" stroke-width="1" opacity="1" d="M 5.5 136 L 6 140.5 L 5 140.5 L 5.5 136 Z " /><path fill="rgb(131,25,33)" stroke="rgb(131,25,33)" stroke-width="1" opacity="1" d="M 149.5 141 L 150 143.5 L 149 143.5 L 149.5 141 Z " /><path fill="rgb(131,25,33)" stroke="rgb(131,25,33)" stroke-width="1" opacity="1" d="M 10.5 142 L 11 146.5 L 10 146.5 L 10.5 142 Z " /><path fill="rgb(131,25,33)" stroke="rgb(131,25,33)" stroke-width="1" opacity="1" d="M 4.5 144 L 5 147.5 L 4 147.5 L 4.5 144 Z " /><path fill="rgb(131,25,33)" stroke="rgb(131,25,33)" stroke-width="1" opacity="1" d="M 83.5 145 L 86 145.5 L 83.5 146 L 83.5 145 Z " /><path fill="rgb(131,25,33)" stroke="rgb(131,25,33)" stroke-width="1" opacity="1" d="M 150.5 147 L 151 149.5 L 150 149.5 L 150.5 147 Z " /><path fill="rgb(131,25,33)" stroke="rgb(131,25,33)" stroke-width="1" opacity="1" d="M 16.5 149 L 17 159.5 L 16 159.5 L 16.5 149 Z " /><path fill="rgb(131,25,33)" stroke="rgb(131,25,33)" stroke-width="1" opacity="1" d="M 157.5 149 L 158 150.5 L 156.5 154 L 156 151.5 L 157.5 149 Z " /><path fill="rgb(131,25,33)" stroke="rgb(131,25,33)" stroke-width="1" opacity="1" d="M 9.5 150 L 10 155.5 L 9 155.5 L 9.5 150 Z " /><path fill="rgb(131,25,33)" stroke="rgb(131,25,33)" stroke-width="1" opacity="1" d="M 3.5 152 L 4 156.5 L 3 156.5 L 3.5 152 Z " /><path fill="rgb(131,25,33)" stroke="rgb(131,25,33)" stroke-width="1" opacity="1" d="M 151.5 153 L 152 155.5 L 151 155.5 L 151.5 153 Z " /><path fill="rgb(131,25,33)" stroke="rgb(131,25,33)" stroke-width="1" opacity="1" d="M 158.5 153 L 159 154.5 L 157.5 158 L 157 155.5 L 158.5 153 Z " /><path fill="rgb(131,25,33)" stroke="rgb(131,25,33)" stroke-width="1" opacity="1" d="M 159.5 157 L 160 160 L 158 159.5 L 159.5 157 Z " /><path fill="rgb(51,120,194)" stroke="rgb(51,120,194)" stroke-width="1" opacity="1" d="M 115.5 132 L 118 132.5 L 112.5 134 L 112.5 133 L 115.5 132 Z " /><path fill="rgb(51,120,194)" stroke="rgb(51,120,194)" stroke-width="1" opacity="1" d="M 140.5 133 L 144 134.5 L 148 160 L 110 159.5 L 117 155.5 L 114.5 155 L 101.5 160 L 92.5 160 L 81 154 Q 79.7 150.7 84.5 152 L 113.5 138 L 140.5 133 Z " /><path fill="rgb(51,120,194)" stroke="rgb(51,120,194)" stroke-width="1" opacity="1" d="M 23.5 134 L 30.5 135 L 51.5 142 L 85 159.5 L 53.5 160 L 48.5 157 L 35.5 153 L 36.5 155 L 47 159.5 L 22 160 L 22 135.5 L 23.5 134 Z " /><path fill="rgb(51,120,194)" stroke="rgb(51,120,194)" stroke-width="1" opacity="1" d="M 109.5 134 L 111 134.5 L 107.5 136 L 107.5 135 L 109.5 134 Z " /><path fill="rgb(51,120,194)" stroke="rgb(51,120,194)" stroke-width="1" opacity="1" d="M 46.5 136 L 50 137.5 L 48.5 138 L 46.5 136 Z " /><path fill="rgb(51,120,194)" stroke="rgb(51,120,194)" stroke-width="1" opacity="1" d="M 51.5 138 L 55 139.5 L 53.5 140 L 51.5 138 Z " /><path fill="rgb(51,120,194)" stroke="rgb(51,120,194)" stroke-width="1" opacity="1" d="M 99.5 139 L 98.5 141 L 96.5 142 L 97.5 140 L 99.5 139 Z " /><path fill="rgb(51,120,194)" stroke="rgb(51,120,194)" stroke-width="1" opacity="1" d="M 58.5 141 L 64 143.5 L 62.5 144 L 58.5 142 L 58.5 141 Z " /><path fill="rgb(51,120,194)" stroke="rgb(51,120,194)" stroke-width="1" opacity="1" d="M 94.5 142 L 93.5 144 L 91.5 145 L 92.5 143 L 94.5 142 Z " /><path fill="rgb(241,231,199)" stroke="rgb(241,231,199)" stroke-width="1" opacity="1" d="M 29 61 L 32 61.5 L 30 68.5 L 31 70.5 L 25 74 L 25 70.5 L 29 61 Z " /><path fill="rgb(241,231,199)" stroke="rgb(241,231,199)" stroke-width="1" opacity="1" d="M 129.5 61 Q 132.1 60.2 131 63.5 Q 135 66.5 135 73.5 L 133.5 76 L 129.5 68 L 128.5 71 L 128 68.5 L 129 65.5 L 128 62.5 L 129.5 61 Z " /><path fill="rgb(241,231,199)" stroke="rgb(241,231,199)" stroke-width="1" opacity="1" d="M 86.5 63 Q 89.9 62.1 88 67.5 L 87 67.5 L 86.5 63 Z " /><path fill="rgb(241,231,199)" stroke="rgb(241,231,199)" stroke-width="1" opacity="1" d="M 69.5 67 L 68.5 69 L 66.5 70 L 67.5 68 L 69.5 67 Z " /><path fill="rgb(241,231,199)" stroke="rgb(241,231,199)" stroke-width="1" opacity="1" d="M 60.5 71 Q 64 74 64 80.5 L 62 79.5 L 59.5 75 L 58 74.5 L 60.5 71 Z " /><path fill="rgb(241,231,199)" stroke="rgb(241,231,199)" stroke-width="1" opacity="1" d="M 91.5 72 L 94 72.5 L 91.5 73 L 91.5 72 Z " /><path fill="rgb(241,231,199)" stroke="rgb(241,231,199)" stroke-width="1" opacity="1" d="M 99.5 72 L 101 77.5 Q 99.8 80.8 96 80 Q 95.4 74.7 99.5 72 Z " /><path fill="rgb(241,231,199)" stroke="rgb(241,231,199)" stroke-width="1" opacity="1" d="M 32.5 75 L 40 80 L 39.5 82 L 32.5 75 Z " /><path fill="rgb(241,231,199)" stroke="rgb(241,231,199)" stroke-width="1" opacity="1" d="M 79.5 75 L 78.5 77 L 79.5 75 Z " /><path fill="rgb(241,231,199)" stroke="rgb(241,231,199)" stroke-width="1" opacity="1" d="M 56.5 77 L 54.5 80 L 56.5 77 Z " /><path fill="rgb(241,231,199)" stroke="rgb(241,231,199)" stroke-width="1" opacity="1" d="M 102.5 77 L 111.5 82 L 117 82.5 L 111.5 83 Q 104.8 81.3 102.5 77 Z " /><path fill="rgb(241,231,199)" stroke="rgb(241,231,199)" stroke-width="1" opacity="1" d="M 93.5 78 L 94 80.5 L 93 80.5 L 93.5 78 Z " /><path fill="rgb(241,231,199)" stroke="rgb(241,231,199)" stroke-width="1" opacity="1" d="M 29.5 79 L 30.5 81 L 29.5 79 Z " /><path fill="rgb(241,231,199)" stroke="rgb(241,231,199)" stroke-width="1" opacity="1" d="M 130.5 79 L 129.5 81 L 130.5 79 Z " /><path fill="rgb(241,231,199)" stroke="rgb(241,231,199)" stroke-width="1" opacity="1" d="M 42.5 82 L 48 82.5 L 42.5 83 L 42.5 82 Z " /><path fill="rgb(241,231,199)" stroke="rgb(241,231,199)" stroke-width="1" opacity="1" d="M 37.5 97 L 36.5 99 L 37.5 97 Z " /><path fill="rgb(241,231,199)" stroke="rgb(241,231,199)" stroke-width="1" opacity="1" d="M 87.5 101 L 88 103.5 L 87 103.5 L 87.5 101 Z " /><path fill="rgb(241,231,199)" stroke="rgb(241,231,199)" stroke-width="1" opacity="1" d="M 127.5 102 L 128 111.5 L 127 111.5 L 127.5 102 Z " /><path fill="rgb(241,231,199)" stroke="rgb(241,231,199)" stroke-width="1" opacity="1" d="M 34.5 114 L 35 116.5 L 34 116.5 L 34.5 114 Z " /><path fill="rgb(241,231,199)" stroke="rgb(241,231,199)" stroke-width="1" opacity="1" d="M 38.5 126 L 39.5 128 L 38.5 126 Z " /><path fill="rgb(241,231,199)" stroke="rgb(241,231,199)" stroke-width="1" opacity="1" d="M 120.5 128 L 119.5 130 L 120.5 128 Z " /><path fill="rgb(241,231,199)" stroke="rgb(241,231,199)" stroke-width="1" opacity="1" d="M 41.5 130 L 42.5 132 L 41.5 130 Z " /><path fill="rgb(241,231,199)" stroke="rgb(241,231,199)" stroke-width="1" opacity="1" d="M 74.5 144 L 77 144.5 L 74.5 145 L 74.5 144 Z " /><path fill="rgb(235,160,122)" stroke="rgb(235,160,122)" stroke-width="1" opacity="1" d="M 128.5 13 L 137 22.5 L 137 32.5 L 135.5 32 L 125 27 L 128.5 13 Z " /><path fill="rgb(235,160,122)" stroke="rgb(235,160,122)" stroke-width="1" opacity="1" d="M 41.5 15 L 43 25 Q 35.8 25 31.5 29 L 32 27.5 L 41.5 15 Z " /><path fill="rgb(235,160,122)" stroke="rgb(235,160,122)" stroke-width="1" opacity="1" d="M 71.5 20 L 73 24.5 L 73 52.5 L 72 53.5 L 70.5 69 L 69.5 67 L 65 69 Q 63.9 62.2 57.5 59 L 48.5 56 L 26.5 54 L 22 56 Q 20 59 21 66.5 L 23.5 71 Q 26.1 70.2 25 73.5 L 26.5 78 Q 27.8 75.8 29 78.5 L 27 78.5 Q 28.6 85.4 34.5 88 L 39.5 91 L 45.5 92 L 49.5 91 L 49.5 92 L 36 98.5 Q 32.1 104.6 34 116.5 L 36 123.5 L 44 135 L 27.5 131 L 22 125.5 L 20 99 L 29.5 99 L 33 96.5 L 34 93.5 Q 29.5 86.8 20 86 L 19 83.5 L 19 50.5 L 20 45.5 L 19 43 L 27.5 46 L 48.5 47 L 59.5 49 L 62.5 51 L 68.5 51 Q 71.5 49.5 70 43.5 L 63.5 35 L 61 33.5 Q 67.8 28.3 71.5 20 Z " /><path fill="rgb(235,160,122)" stroke="rgb(235,160,122)" stroke-width="1" opacity="1" d="M 99 22 L 105 26.5 L 106 28.5 L 97 35 L 99 22 Z " /><path fill="rgb(235,160,122)" stroke="rgb(235,160,122)" stroke-width="1" opacity="1" d="M 134.5 45 Q 140.2 43.2 138 49.5 Q 140.3 50.8 139 55.5 L 137.5 55 L 132.5 54 L 131.5 55 L 118.5 55 L 107.5 57 Q 99.6 59.1 96 65.5 L 94 72 Q 90.2 73 89 70.5 L 87 60.5 L 92.5 51 L 97.5 51 L 101.5 49 L 112.5 47 L 133.5 46 L 134.5 45 Z " /><path fill="rgb(235,160,122)" stroke="rgb(235,160,122)" stroke-width="1" opacity="1" d="M 127 61 L 129 61.5 L 127 62.5 L 127 61 Z " /><path fill="rgb(235,160,122)" stroke="rgb(235,160,122)" stroke-width="1" opacity="1" d="M 30.5 65 L 31 68.5 L 30 68.5 L 30.5 65 Z " /><path fill="rgb(235,160,122)" stroke="rgb(235,160,122)" stroke-width="1" opacity="1" d="M 128.5 65 L 129 67.5 L 128 67.5 L 128.5 65 Z " /><path fill="rgb(235,160,122)" stroke="rgb(235,160,122)" stroke-width="1" opacity="1" d="M 139.5 65 L 140 86 L 130.5 89 L 126 93.5 L 128.5 98 L 141 99 L 141 116.5 L 142 117.5 L 142 125 L 135.5 129 L 124.5 130 L 118.5 132 L 121 128.5 L 127 115.5 L 128 102.5 L 125 95 L 118.5 92 L 112 91.5 L 120.5 91 L 132 81.5 L 135 71.5 L 134.5 70 L 136.5 71 L 139.5 65 Z " /><path fill="rgb(235,160,122)" stroke="rgb(235,160,122)" stroke-width="1" opacity="1" d="M 59 70 L 61 70.5 L 59 71.5 L 59 70 Z " /><path fill="rgb(235,160,122)" stroke="rgb(235,160,122)" stroke-width="1" opacity="1" d="M 36.5 71 Q 42.8 69.8 44 73.5 L 45 76.5 L 40.5 82 L 40 80 L 32 74.5 L 34 74 Q 32.9 71.3 35.5 72 L 36.5 71 Z " /><path fill="rgb(235,160,122)" stroke="rgb(235,160,122)" stroke-width="1" opacity="1" d="M 61.5 72 L 62.5 74 L 61.5 72 Z " /><path fill="rgb(235,160,122)" stroke="rgb(235,160,122)" stroke-width="1" opacity="1" d="M 106.5 72 Q 112.8 70.8 114 74.5 L 115 77.5 L 111.5 82 L 100 74.5 L 100.5 73 L 102.5 76 L 104 73 L 106.5 72 Z " /><path fill="rgb(235,160,122)" stroke="rgb(235,160,122)" stroke-width="1" opacity="1" d="M 66.5 74 L 67 77.5 L 66 77.5 L 66.5 74 Z " /><path fill="rgb(235,160,122)" stroke="rgb(235,160,122)" stroke-width="1" opacity="1" d="M 57.5 75 L 56.5 77 L 57.5 75 Z " /><path fill="rgb(235,160,122)" stroke="rgb(235,160,122)" stroke-width="1" opacity="1" d="M 63.5 75 L 64 77.5 L 63 77.5 L 63.5 75 Z " /><path fill="rgb(235,160,122)" stroke="rgb(235,160,122)" stroke-width="1" opacity="1" d="M 125.5 76 L 122.5 80 L 125.5 76 Z " /><path fill="rgb(235,160,122)" stroke="rgb(235,160,122)" stroke-width="1" opacity="1" d="M 77.5 77 L 76.5 79 L 77.5 77 Z " /><path fill="rgb(235,160,122)" stroke="rgb(235,160,122)" stroke-width="1" opacity="1" d="M 53.5 79 L 52.5 81 L 53.5 79 Z " /><path fill="rgb(235,160,122)" stroke="rgb(235,160,122)" stroke-width="1" opacity="1" d="M 68.5 81 L 70 83.5 L 68 82.5 L 68.5 81 Z " /><path fill="rgb(235,160,122)" stroke="rgb(235,160,122)" stroke-width="1" opacity="1" d="M 40.5 86 L 43 86.5 L 40.5 87 L 40.5 86 Z " /><path fill="rgb(235,160,122)" stroke="rgb(235,160,122)" stroke-width="1" opacity="1" d="M 60.5 86 L 63 86.5 Q 60.9 89.8 60.5 86 Z " /><path fill="rgb(235,160,122)" stroke="rgb(235,160,122)" stroke-width="1" opacity="1" d="M 97.5 86 L 100 86.5 Q 97.9 89.8 97.5 86 Z " /><path fill="rgb(235,160,122)" stroke="rgb(235,160,122)" stroke-width="1" opacity="1" d="M 117.5 86 L 120 86.5 L 117.5 87 L 117.5 86 Z " /><path fill="rgb(235,160,122)" stroke="rgb(235,160,122)" stroke-width="1" opacity="1" d="M 52.5 87 L 55 87.5 L 52.5 88 L 52.5 87 Z " /><path fill="rgb(235,160,122)" stroke="rgb(235,160,122)" stroke-width="1" opacity="1" d="M 106.5 87 L 109 87.5 L 106.5 88 L 106.5 87 Z " /><path fill="rgb(235,160,122)" stroke="rgb(235,160,122)" stroke-width="1" opacity="1" d="M 79 97 Q 81.7 95.9 81 98.5 L 83 102 L 77 101.5 L 79 97 Z " /><path fill="rgb(235,160,122)" stroke="rgb(235,160,122)" stroke-width="1" opacity="1" d="M 85.5 99 L 86.5 101 L 85.5 99 Z " /><path fill="rgb(235,160,122)" stroke="rgb(235,160,122)" stroke-width="1" opacity="1" d="M 71.5 124 L 75 124.5 L 71.5 125 L 71.5 124 Z " /><path fill="rgb(235,160,122)" stroke="rgb(235,160,122)" stroke-width="1" opacity="1" d="M 85.5 124 L 89 124.5 L 85.5 125 L 85.5 124 Z " /><path fill="rgb(235,160,122)" stroke="rgb(235,160,122)" stroke-width="1" opacity="1" d="M 67.5 125 L 67 126.5 L 66.5 129 L 66 126.5 L 67.5 125 Z " /><path fill="rgb(235,160,122)" stroke="rgb(235,160,122)" stroke-width="1" opacity="1" d="M 91.5 125 L 93 128.5 Q 92.3 130.8 88.5 130 L 88.5 129 Q 93.3 130.7 92 126.5 L 91.5 125 Z " /><path fill="rgb(235,160,122)" stroke="rgb(235,160,122)" stroke-width="1" opacity="1" d="M 68.5 144 L 71 144.5 L 68.5 145 L 68.5 144 Z " /><path fill="rgb(254,247,200)" stroke="rgb(254,247,200)" stroke-width="1" opacity="1" d="M 129.5 68 L 133 76.5 L 127.5 83 L 124.5 85 L 115.5 87 L 101.5 87 L 97 84.5 L 96 80 Q 99.8 80.8 101 77.5 L 101.5 76 L 102 78 L 108.5 82 L 116.5 83 Q 123.7 81.2 127 75.5 L 129.5 68 Z " /><path fill="rgb(254,247,200)" stroke="rgb(254,247,200)" stroke-width="1" opacity="1" d="M 30.5 71 Q 31.6 77.4 36.5 80 Q 39.7 83.8 47.5 83 L 57 77.5 L 58.5 75 L 61 76.5 L 65 82.5 L 58.5 87 L 44.5 87 L 35.5 85 L 31 81.5 L 26 74.5 L 30.5 71 Z " /><path fill="rgb(254,247,200)" stroke="rgb(254,247,200)" stroke-width="1" opacity="1" d="M 78.5 96 L 82 96.5 L 78.5 97 L 78.5 96 Z " /><path fill="rgb(255,247,200)" stroke="rgb(255,247,200)" stroke-width="1" opacity="1" d="M 86.5 64 L 89.5 72 L 94 73.5 L 93 74.5 L 93 81 Q 96.8 79.5 96 82.5 L 97 85.5 L 96.5 87 L 110.5 92 L 117.5 92 L 125 96.5 L 127 100.5 L 127 114.5 L 119 131 L 105.5 135 L 88.5 145 L 78.5 145 L 74.5 144 L 72.5 144 L 65.5 144 L 45.5 135 L 43 132.5 L 37 124.5 L 34 112.5 L 34 105.5 L 37.5 98 L 53.5 90 L 56.5 90 L 64 86.5 L 63 84.5 Q 66.1 82.8 64.5 81 L 67 80.5 L 67 71.5 Q 64.8 70.3 67.5 69 L 69.5 68 L 70 70.5 L 69 71.5 L 68 82.5 L 69 85 L 70.5 85 L 80 75.5 L 86.5 64 Z M 78 96 L 72 102 L 72 104 L 75 105 L 86 105 L 87 104 Q 89 105 88 102 L 83 96 L 78 96 Z M 70 124 L 69 125 Q 65 124 66 127 Q 63 128 68 130 L 72 129 L 85 129 L 86 130 L 93 130 L 94 127 L 92 124 L 70 124 Z " /></svg>