<svg xmlns="http://www.w3.org/2000/svg" viewBox="0 0 64 64">
  <defs>
    <linearGradient id="grad1" x1="0%" y1="0%" x2="100%" y2="100%">
      <stop offset="0%" style="stop-color:#5a67d8;stop-opacity:1" />
      <stop offset="100%" style="stop-color:#764ba2;stop-opacity:1" />
    </linearGradient>
  </defs>

  <!-- Background circle -->
  <circle cx="32" cy="32" r="30" fill="url(#grad1)"/>

  <!-- Microchip/CPU icon -->
  <rect x="20" y="20" width="24" height="24" rx="3" fill="white" opacity="0.95"/>

  <!-- Chip pins - simplified -->
  <!-- Top pins -->
  <rect x="23" y="17" width="2" height="3" fill="#5a67d8" opacity="0.8"/>
  <rect x="31" y="17" width="2" height="3" fill="#5a67d8" opacity="0.8"/>
  <rect x="39" y="17" width="2" height="3" fill="#5a67d8" opacity="0.8"/>

  <!-- Bottom pins -->
  <rect x="23" y="44" width="2" height="3" fill="#5a67d8" opacity="0.8"/>
  <rect x="31" y="44" width="2" height="3" fill="#5a67d8" opacity="0.8"/>
  <rect x="39" y="44" width="2" height="3" fill="#5a67d8" opacity="0.8"/>

  <!-- Left pins -->
  <rect x="17" y="23" width="3" height="2" fill="#5a67d8" opacity="0.8"/>
  <rect x="17" y="31" width="3" height="2" fill="#5a67d8" opacity="0.8"/>
  <rect x="17" y="39" width="3" height="2" fill="#5a67d8" opacity="0.8"/>

  <!-- Right pins -->
  <rect x="44" y="23" width="3" height="2" fill="#5a67d8" opacity="0.8"/>
  <rect x="44" y="31" width="3" height="2" fill="#5a67d8" opacity="0.8"/>
  <rect x="44" y="39" width="3" height="2" fill="#5a67d8" opacity="0.8"/>

  <!-- Error mark X -->
  <line x1="26" y1="26" x2="38" y2="38" stroke="#764ba2" stroke-width="3" stroke-linecap="round"/>
  <line x1="38" y1="26" x2="26" y2="38" stroke="#764ba2" stroke-width="3" stroke-linecap="round"/>
</svg>
